<?xml version="1.0" standalone="no"?><!DOCTYPE svg PUBLIC "-//W3C//DTD SVG 1.1//EN" "http://www.w3.org/Graphics/SVG/1.1/DTD/svg11.dtd"><svg t="1657539707578" class="icon" viewBox="0 0 1091 1024" version="1.1" xmlns="http://www.w3.org/2000/svg" p-id="3408" xmlns:xlink="http://www.w3.org/1999/xlink" width="213.0859375" height="200"><defs><style type="text/css">@font-face { font-family: feedback-iconfont; src: url("//at.alicdn.com/t/font_1031158_u69w8yhxdu.woff2?t=1630033759944") format("woff2"), url("//at.alicdn.com/t/font_1031158_u69w8yhxdu.woff?t=1630033759944") format("woff"), url("//at.alicdn.com/t/font_1031158_u69w8yhxdu.ttf?t=1630033759944") format("truetype"); }
</style></defs><path d="M512 992.342857c-158.742857 0-273.942857-9.6-305.371429-12.571428-20.342857-1.942857-38.514286-13.142857-48.457142-29.942858-40.685714-68.914286-109.714286-207.428571-153.828572-309.028571-6.971429-16.114286-5.485714-34.628571 4.228572-49.257143 4.457143-6.742857 10.4-12.457143 17.257142-16.571428 0.914286-66.742857 31.314286-129.6 83.2-171.771429-0.457143-7.2 0.457143-14.514286 2.514286-21.371429 6.057143-19.542857 21.714286-34.057143 42.971429-39.771428 4.457143-1.142857 9.028571-2.057143 13.6-2.628572 12.685714-17.142857 30.285714-29.6 49.6-34.285714 5.6-1.371429 11.314286-2.057143 17.142857-2.057143 11.085714 0.114286 22.057143 2.628571 32.114286 7.428572 11.542857-6.971429 25.714286-13.942857 44.228571-13.942857 5.828571 0 11.542857 0.685714 17.142857 2.057142 25.142857 6.057143 46.514286 24.8 58.742857 48.914286l0.457143 0.114286c4.457143-2.4 9.257143-4.228571 14.171429-5.6 4.457143-1.142857 9.028571-2.057143 13.6-2.628572 12.685714-17.142857 30.285714-29.6 49.6-34.285714 5.6-1.371429 11.314286-2.057143 17.142857-2.057143 11.085714 0.114286 22.057143 2.628571 32.114286 7.428572 11.542857-6.857143 25.714286-13.942857 44.228571-13.942857 5.828571 0 11.542857 0.685714 17.142857 2.057142 12.342857 3.085714 23.771429 8.914286 33.485714 17.028572l96.457143-251.885714c9.942857-25.828571 38.857143-38.857143 64.685715-28.914286l28 10.742857c25.828571 9.942857 38.857143 38.857143 28.914285 64.685714l-44.342857 115.885715 54.4-111.771429c12.114286-24.914286 42.057143-35.314286 66.971429-23.2l26.971428 13.142857c24.914286 12.114286 35.2 42.057143 23.2 66.971429l-79.771428 164.114285c2.628571 3.771429 4.914286 7.771429 7.085714 11.885715 1.485714 0.342857 2.971429 0.685714 4.457143 1.142857 21.257143 5.714286 36.914286 20.228571 42.971428 39.771428 2.857143 9.371429 3.428571 19.2 1.485715 28.8 42.514286 41.6 66.857143 98.4 67.657143 157.828572 6.971429 4.114286 12.914286 9.828571 17.257142 16.571428 9.6 14.628571 11.2 33.142857 4.228572 49.257143-44.114286 101.485714-113.142857 240.114286-153.828572 309.028572-9.942857 16.914286-28.114286 28.114286-48.457142 29.942857-31.428571 3.085714-146.628571 12.685714-305.371429 12.685714z" fill="#25467A" p-id="3409"></path><path d="M752.914286 79.885714l28 10.742857c1.142857 0.457143 1.6 1.6 1.257143 2.742858L536.685714 735.314286c-0.457143 1.142857-1.6 1.6-2.742857 1.257143l-28-10.742858c-1.142857-0.457143-1.6-1.6-1.257143-2.742857L750.171429 81.028571c0.457143-1.028571 1.714286-1.6 2.742857-1.142857zM883.085714 134.514286l26.971429 13.142857c1.028571 0.571429 1.485714 1.828571 1.028571 2.857143l-300.571428 618.171428c-0.571429 1.028571-1.828571 1.485714-2.857143 1.028572L580.685714 756.571429c-1.028571-0.571429-1.485714-1.828571-1.028571-2.857143l300.571428-618.171429c0.571429-1.028571 1.828571-1.485714 2.857143-1.028571z" fill="#FFC766" p-id="3410"></path><path d="M772.342857 578.4m-177.828571 0a177.828571 177.828571 0 1 0 355.657143 0 177.828571 177.828571 0 1 0-355.657143 0Z" fill="#FFB74D" p-id="3411"></path><path d="M950.171429 578.4c0 98.171429-79.657143 177.828571-177.942858 177.828571-24.571429 0-48.914286-5.142857-71.428571-14.971428 97.257143 14.057143 187.314286-53.371429 201.371429-150.628572 11.428571-79.085714-31.314286-156-104.457143-188.114285 87.542857 12.571429 152.457143 87.542857 152.457143 175.885714z" fill="#FB8C00" p-id="3412"></path><path d="M950.171429 578.4c0 60.114286-29.828571-6.285714-75.657143-43.885714-28.914286-23.771429-64.114286 56-102.171429 56s-73.257143-79.657143-102.171428-56c-45.714286 37.6-75.657143 104-75.657143 43.885714 0-4.8 0.228571-9.485714 0.571428-14.171429 7.885714-97.828571 93.6-170.857143 191.428572-162.971428 86.971429 6.971429 156 76 162.971428 162.971428 0.457143 4.685714 0.685714 9.371429 0.685715 14.171429z" fill="#802408" p-id="3413"></path><path d="M512 578.4m-177.828571 0a177.828571 177.828571 0 1 0 355.657142 0 177.828571 177.828571 0 1 0-355.657142 0Z" fill="#FFB74D" p-id="3414"></path><path d="M689.828571 578.4c0 98.171429-79.657143 177.828571-177.942857 177.828571-24.571429 0-48.914286-5.142857-71.428571-14.971428 97.142857 14.057143 187.428571-53.371429 201.485714-150.514286 11.428571-79.085714-31.314286-156.114286-104.457143-188.228571 87.428571 12.571429 152.342857 87.542857 152.342857 175.885714z" fill="#FB8C00" p-id="3415"></path><path d="M689.828571 578.4c0 60.114286-29.942857-6.285714-75.657142-43.885714-28.914286-23.771429-64.114286 56-102.171429 56s-73.257143-79.657143-102.171429-56c-45.714286 37.6-75.657143 104-75.657142 43.885714 0-4.8 0.228571-9.485714 0.571428-14.171429 7.885714-97.828571 93.6-170.857143 191.428572-162.971428 86.971429 6.971429 156 76 162.971428 162.971428 0.457143 4.685714 0.685714 9.371429 0.685714 14.171429z" fill="#802408" p-id="3416"></path><path d="M251.657143 578.4m-177.828572 0a177.828571 177.828571 0 1 0 355.657143 0 177.828571 177.828571 0 1 0-355.657143 0Z" fill="#FFB74D" p-id="3417"></path><path d="M429.371429 578.4c0 98.285714-79.657143 177.828571-177.942858 177.828571-24.571429 0-48.914286-5.142857-71.428571-14.971428 97.142857 14.057143 187.428571-53.371429 201.485714-150.514286 11.428571-79.085714-31.314286-156.114286-104.457143-188.228571 87.428571 12.571429 152.342857 87.542857 152.342858 175.885714z" fill="#FB8C00" p-id="3418"></path><path d="M429.371429 578.4c0 60.114286-29.828571-6.285714-75.657143-43.885714-28.914286-23.771429-64.114286 56-102.171429 56s-73.257143-79.657143-102.171428-56c-45.714286 37.6-75.657143 104-75.657143 43.885714 0-4.8 0.228571-9.485714 0.571428-14.171429C82.285714 466.285714 168 393.371429 265.828571 401.142857c86.971429 6.971429 156 76 162.971429 162.971429 0.342857 4.8 0.571429 9.485714 0.571429 14.285714z" fill="#802408" p-id="3419"></path><path d="M166.857143 487.428571h-0.228572c-6.285714-0.114286-11.314286-5.257143-11.2-11.657142 0.571429-34.4 9.142857-55.542857 26.285715-64.914286 27.085714-14.742857 63.085714 7.428571 94.971428 27.085714 9.942857 6.171429 24 14.857143 31.657143 17.485714-1.371429-5.142857-2.971429-10.285714-4.914286-15.2-5.371429-14.514286-11.314286-30.971429-0.685714-40.8 14.628571-13.485714 39.2 2.171429 76.457143 25.828572 16.8 10.742857 34.171429 21.828571 49.028571 28.685714 19.771429 9.142857 24.457143 5.828571 24.571429 5.714286 2.628571-2.057143 1.828571-13.028571 1.371429-19.542857-0.914286-13.257143-2.057143-29.714286 11.314285-37.714286 15.428571-9.257143 32.685714 2.857143 51.085715 15.885714 19.085714 13.485714 40.685714 28.8 60.571428 23.428572 6.628571-1.828571 9.142857-4.685714 13.142857-9.028572 5.028571-5.6 11.314286-12.457143 24.914286-15.657143 26.4-6.285714 48.228571 8.914286 65.828571 21.142858 13.142857 9.142857 24.457143 17.028571 32.914286 13.942857 5.714286-2.057143 8-8.228571 11.657143-18.857143 3.885714-11.314286 8.685714-25.485714 22.628571-33.828572 27.542857-16.571429 70.857143-0.114286 136.228572 51.542858 4.914286 3.885714 5.828571 11.085714 1.828571 16s-11.085714 5.828571-16 1.828571c-72.571429-57.485714-100.228571-55.885714-110.285714-49.942857-6.742857 4-9.485714 12.228571-12.8 21.6-4.114286 12-9.257143 27.085714-25.485714 32.914286-19.657143 7.085714-37.028571-5.028571-53.828572-16.685715-16-11.085714-31.085714-21.6-47.428571-17.714285-6.628571 1.6-9.142857 4.342857-13.257143 8.8-4.914286 5.485714-11.085714 12.228571-24.114286 15.771428-4.8 1.257143-9.714286 1.942857-14.628571 1.942857-24.457143 0-46.742857-15.771429-65.142857-28.8-8.114286-5.714286-21.714286-15.314286-26.057143-14.971428-1.371429 2.514286-0.685714 11.542857-0.342857 16.571428 0.914286 13.257143 2.057143 29.714286-10.285715 39.2-5.028571 3.771429-11.085714 5.714286-17.257142 5.485715-21.828571 0-51.542857-18.857143-82.628572-38.628572-12.114286-7.771429-23.542857-14.971429-33.257143-20.228571-4.342857-2.4-8.8-4.457143-13.485714-6.057143 1.028571 4.228571 3.2 10.057143 4.685714 14.057143 5.485714 14.857143 11.657143 31.771429 0.571429 41.828571-10.285714 9.485714-25.485714 2.628571-30.514286 0.342857-8.8-4-19.2-10.4-30.285714-17.142857-23.885714-14.742857-56.571429-34.857143-72-26.514286-8.914286 4.8-13.942857 20.914286-14.4 45.257143 0 6.514286-5.028571 11.542857-11.2 11.542857z" fill="#FAFAFA" p-id="3420"></path><path d="M761.257143 366.171429c24.685714-12.571429 34.285714-24.685714 50.171428-20.8 19.2 4.685714 35.314286 29.6 32.685715 52.114285-3.2 26.742857-31.542857 39.885714-47.428572 47.314286-5.371429 2.514286-52 23.2-99.428571-0.571429-20.114286-10.057143-50.057143-33.142857-45.371429-48.228571 5.485714-17.714286 50.857143-0.114286 109.371429-29.828571zM514.057143 366.171429c24.685714-12.571429 34.285714-24.685714 50.171428-20.8 19.2 4.685714 35.314286 29.6 32.685715 52.114285-3.2 26.742857-31.542857 39.885714-47.542857 47.314286-5.371429 2.514286-52 23.2-99.428572-0.571429-20.114286-10.057143-50.057143-33.142857-45.371428-48.228571 5.6-17.714286 50.971429-0.114286 109.485714-29.828571zM266.857143 366.171429c24.685714-12.571429 34.285714-24.685714 50.171428-20.8 19.314286 4.685714 35.314286 29.6 32.685715 52.114285-3.2 26.742857-31.542857 39.885714-47.428572 47.314286-5.371429 2.514286-52 23.2-99.428571-0.571429-20.114286-10.057143-50.057143-33.142857-45.371429-48.228571 5.371429-17.714286 50.857143-0.114286 109.371429-29.828571z" fill="#FFE0B2" p-id="3421"></path><path d="M279.2 372.685714c-24.685714-12.571429-34.285714-24.685714-50.171429-20.8-19.314286 4.685714-35.314286 29.6-32.685714 52.114286 3.2 26.742857 31.542857 39.885714 47.542857 47.314286 5.371429 2.514286 52 23.2 99.428572-0.571429 20.114286-10.171429 50.057143-33.142857 45.371428-48.228571-5.485714-17.714286-50.971429-0.114286-109.485714-29.828572zM526.4 372.685714c-24.685714-12.571429-34.285714-24.685714-50.171429-20.8-19.2 4.685714-35.314286 29.6-32.685714 52.114286 3.2 26.742857 31.542857 39.885714 47.428572 47.314286 5.371429 2.514286 52 23.2 99.428571-0.571429 20.228571-10.171429 50.057143-33.142857 45.485714-48.228571-5.485714-17.714286-50.971429-0.114286-109.485714-29.828572zM773.6 372.685714c-24.685714-12.571429-34.285714-24.685714-50.171429-20.8-19.2 4.685714-35.314286 29.6-32.685714 52.114286 3.2 26.742857 31.428571 39.885714 47.428572 47.314286 5.371429 2.514286 52 23.2 99.428571-0.571429 20.228571-10.171429 50.057143-33.142857 45.371429-48.228571-5.371429-17.714286-50.857143-0.114286-109.371429-29.828572z" fill="#FFF0D9" p-id="3422"></path><path d="M968.457143 614.971429c-142.4 7.085714-294.857143 11.2-456.457143 10.857142-161.485714 0.228571-314.057143-3.885714-456.457143-10.857142-5.142857-0.228571-8.8 3.2-7.2 6.628571C93.142857 724.571429 160.571429 859.428571 199.428571 925.257143c2.057143 3.428571 6.285714 6.171429 11.542858 6.628571C242.285714 934.857143 355.314286 944.342857 512 944.342857s269.714286-9.371429 301.028571-12.342857c5.371429-0.457143 9.485714-3.2 11.542858-6.628571 38.857143-65.828571 106.285714-200.685714 151.085714-303.657143 1.485714-3.542857-2.171429-6.971429-7.2-6.742857z" fill="#FFE0B2" p-id="3423"></path><path d="M975.657143 621.714286c-44.8 102.971429-112.228571 237.828571-151.085714 303.657143-2.057143 3.428571-6.285714 6.057143-11.542858 6.628571-11.2 1.028571-32.914286 2.971429-63.428571 4.914286 38.057143-70.4 102.4-209.371429 146.628571-318.628572 24.342857-1.028571 48.457143-2.057143 72.228572-3.314285 5.028571-0.228571 8.685714 3.2 7.2 6.742857z" fill="#FFD699" p-id="3424"></path><path d="M512 908.8c-38.171429 0-69.142857-30.971429-69.142857-69.257143 0-7.657143 6.171429-13.828571 13.828571-13.828571 7.314286 0 13.485714 5.714286 13.828572 13.028571v0.8c-0.342857 22.971429 17.942857 41.828571 40.8 42.171429 22.971429 0.342857 41.828571-17.942857 42.171428-40.8v-1.371429c-0.228571-7.657143 5.828571-14.057143 13.371429-14.285714 7.657143-0.228571 14.057143 5.828571 14.285714 13.371428v0.8c0 38.4-30.971429 69.371429-69.142857 69.371429zM332.114286 728.914286c-0.342857 22.971429 17.942857 41.828571 40.8 42.171428 22.971429 0.342857 41.828571-17.942857 42.171428-40.8v-1.371428c0.342857-22.971429-17.942857-41.828571-40.8-42.171429-22.971429-0.342857-41.828571 17.942857-42.171428 40.8v1.371429zM608.8 728.914286c-0.342857 22.971429 17.828571 41.828571 40.8 42.285714 22.971429 0.342857 41.828571-17.828571 42.285714-40.8v-1.485714c0.342857-22.971429-17.942857-41.828571-40.8-42.171429-22.971429-0.342857-41.828571 17.942857-42.171428 40.8-0.114286 0.457143-0.114286 0.914286-0.114286 1.371429z" fill="#25467A" p-id="3425"></path><path d="M318.285714 798.171429h-55.314285c-15.314286 0.342857-27.428571 12.914286-27.085715 28.228571 0.342857 14.857143 12.228571 26.857143 27.085715 27.085714h55.428571c15.314286 0.342857 27.885714-11.771429 28.228571-27.085714 0.342857-15.314286-11.771429-27.885714-27.085714-28.228571h-1.257143z m442.742857 0h-55.314285c-15.314286 0.342857-27.428571 12.914286-27.085715 28.228571 0.342857 14.857143 12.228571 26.857143 27.085715 27.085714h55.314285c15.314286-0.342857 27.428571-12.914286 27.085715-28.228571-0.228571-14.857143-12.228571-26.857143-27.085715-27.085714z" fill="#FFCC80" p-id="3426"></path></svg>